<svg width="569" height="414" viewBox="0 0 569 414" fill="none" xmlns="http://www.w3.org/2000/svg">
<path d="M37.8954 224.14L230.801 115.299C232.187 114.523 233.759 114.114 235.36 114.114C236.96 114.114 238.533 114.523 239.919 115.299L528.388 275.448C529.78 276.223 530.936 277.34 531.741 278.687C532.545 280.035 532.968 281.564 532.968 283.121C532.968 284.678 532.545 286.207 531.741 287.554C530.936 288.901 529.78 290.019 528.388 290.794L343.946 394.114C339.42 396.649 334.286 397.984 329.06 397.984C323.834 397.984 318.699 396.649 314.173 394.114L37.9239 239.444C36.5404 238.669 35.3912 237.555 34.5912 236.213C33.7913 234.871 33.3687 233.35 33.3658 231.8C33.3629 230.25 33.7798 228.726 34.5748 227.382C35.3697 226.038 36.5148 224.92 37.8954 224.14Z" fill="#007F68"/>
<path d="M140.671 241.983V246.523L143.032 249.338" fill="#ADCEE1"/>
<path d="M234.713 186.7L143.345 241.638C142.516 242.146 141.836 242.853 141.371 243.69C140.907 244.528 140.673 245.468 140.693 246.419C140.713 247.37 140.986 248.3 141.486 249.119C141.985 249.937 142.695 250.617 143.544 251.091L282.21 327.184C284.148 328.249 286.34 328.8 288.567 328.783C290.794 328.766 292.978 328.181 294.898 327.088L385.867 275.213C392.482 269.942 391.984 260.033 385.867 259.606L247.999 186.466C245.971 185.33 243.663 184.752 241.322 184.794C238.981 184.835 236.696 185.494 234.713 186.7Z" fill="#88D3D8"/>
<path d="M234.712 182.919L143.331 237.857C142.502 238.364 141.822 239.071 141.357 239.909C140.892 240.747 140.659 241.687 140.679 242.638C140.699 243.589 140.972 244.519 141.471 245.337C141.971 246.156 142.68 246.835 143.53 247.31L282.196 323.403C284.134 324.467 286.326 325.019 288.553 325.002C290.78 324.985 292.964 324.4 294.884 323.306L385.853 271.432C386.901 270.818 387.769 269.952 388.37 268.917C388.972 267.882 389.289 266.714 389.289 265.526C389.289 264.338 388.972 263.17 388.37 262.135C387.769 261.1 386.901 260.234 385.853 259.619L247.942 182.698C245.922 181.572 243.625 180.997 241.296 181.036C238.966 181.075 236.691 181.726 234.712 182.919Z" fill="white"/>
<path d="M238.454 175.412C238.454 175.412 276.406 56.58 276.164 56.58C275.922 56.58 277.345 51.2946 284.13 54.2892L429.766 137.448C429.766 137.448 436.878 140.208 435.456 146.597C434.033 152.987 398.3 262.876 398.3 262.876C397.554 263.921 396.484 264.707 395.246 265.121C394.008 265.536 392.666 265.557 391.415 265.181C386.977 263.801 241.811 182.036 241.811 182.036C240.491 181.549 239.41 180.595 238.787 179.366C238.164 178.136 238.045 176.723 238.454 175.412Z" fill="#68E1FD"/>
<path d="M278.582 65.2188L427.717 149.564L396.792 250.318L245.737 168.47L278.582 65.2188Z" fill="#172D51"/>
<path d="M229.122 195.505L195.708 215.694C195.112 216.05 194.623 216.551 194.288 217.146C193.953 217.742 193.784 218.411 193.797 219.09C193.81 219.768 194.004 220.431 194.362 221.014C194.719 221.597 195.227 222.08 195.836 222.415L315.795 288.737C317.588 289.741 319.621 290.27 321.691 290.27C323.761 290.27 325.795 289.741 327.588 288.737C335.297 284.377 348.569 276.524 356.692 271.694C357.415 271.263 358.01 270.658 358.419 269.937C358.829 269.217 359.039 268.405 359.029 267.582C359.019 266.759 358.789 265.953 358.362 265.242C357.935 264.531 357.325 263.939 356.592 263.525C332.31 249.78 253.205 205.151 235.851 195.394C234.824 194.818 233.656 194.524 232.471 194.544C231.285 194.563 230.128 194.895 229.122 195.505Z" fill="#68E1FD"/>
<path d="M230.914 250.318L272.807 273.171C273.445 273.526 273.976 274.039 274.345 274.657C274.713 275.275 274.908 275.976 274.908 276.69C274.908 277.404 274.713 278.105 274.345 278.723C273.976 279.341 273.445 279.854 272.807 280.209L248.169 294.202C247.324 294.676 246.365 294.925 245.388 294.925C244.412 294.925 243.453 294.676 242.607 294.202L199.804 270.48C199.269 270.183 198.825 269.754 198.515 269.237C198.206 268.719 198.043 268.132 198.043 267.534C198.043 266.936 198.206 266.348 198.515 265.831C198.825 265.313 199.269 264.884 199.804 264.587L225.409 250.304C226.249 249.843 227.199 249.602 228.164 249.604C229.129 249.607 230.077 249.853 230.914 250.318Z" fill="#68E1FD"/>
<path opacity="0.1" d="M229.122 195.505L195.708 215.694C195.112 216.05 194.623 216.551 194.288 217.146C193.953 217.742 193.784 218.411 193.797 219.09C193.81 219.768 194.004 220.431 194.362 221.014C194.719 221.597 195.227 222.08 195.836 222.415L315.795 288.737C317.588 289.741 319.621 290.27 321.691 290.27C323.761 290.27 325.795 289.741 327.588 288.737C335.297 284.377 348.569 276.524 356.692 271.694C357.415 271.263 358.01 270.658 358.419 269.937C358.829 269.217 359.039 268.405 359.029 267.582C359.019 266.759 358.789 265.953 358.362 265.242C357.935 264.531 357.325 263.939 356.592 263.525C332.31 249.78 253.205 205.151 235.851 195.394C234.824 194.818 233.656 194.524 232.471 194.544C231.285 194.563 230.128 194.895 229.122 195.505Z" fill="#053855"/>
<path opacity="0.1" d="M230.914 250.318L272.807 273.171C273.445 273.526 273.976 274.039 274.345 274.657C274.713 275.275 274.908 275.976 274.908 276.69C274.908 277.404 274.713 278.105 274.345 278.723C273.976 279.341 273.445 279.854 272.807 280.209L248.169 294.202C247.324 294.676 246.365 294.925 245.388 294.925C244.412 294.925 243.453 294.676 242.607 294.202L199.804 270.48C199.269 270.183 198.825 269.754 198.515 269.237C198.206 268.719 198.043 268.132 198.043 267.534C198.043 266.936 198.206 266.348 198.515 265.831C198.825 265.313 199.269 264.884 199.804 264.587L225.409 250.304C226.249 249.843 227.199 249.602 228.164 249.604C229.129 249.607 230.077 249.853 230.914 250.318Z" fill="#053855"/>
<path d="M199.733 254.817C196.752 246.727 195.137 238.222 194.954 229.632C194.484 218.689 198.624 201.839 215.139 202.915C238.34 204.433 246.576 228.942 259.009 235.649C271.441 242.356 299.536 231.26 301.385 241.5C303.234 251.74 298.227 263.828 290.93 271.267C273.376 289.207 238.553 287.827 217.87 276.124C209.444 271.296 203.027 263.757 199.733 254.817Z" fill="#FA6D90"/>
<path d="M281.655 273.157C243.76 278.111 197.727 254.237 195.878 217.792C195.062 221.561 194.709 225.41 194.826 229.259C195.009 237.849 196.623 246.354 199.605 254.444C202.9 263.392 209.322 270.936 217.756 275.765C238.24 287.316 272.594 288.793 290.304 271.391C287.47 272.185 284.579 272.775 281.655 273.157Z" fill="#D64770"/>
<path d="M296.99 192.855C296.992 192.234 296.833 191.623 296.528 191.078C296.222 190.532 295.779 190.071 295.24 189.736C295.187 189.22 294.995 188.726 294.683 188.304C294.371 187.883 293.95 187.548 293.462 187.335C293.393 187.305 293.322 187.281 293.248 187.266C294.093 185.696 294.779 184.051 295.297 182.353C295.278 182.068 295.164 181.796 294.971 181.579C294.778 181.363 294.517 181.213 294.229 181.154C293.94 181.094 293.639 181.128 293.373 181.25C293.106 181.372 292.887 181.575 292.751 181.829C291.958 183.964 290.938 186.013 289.706 187.942C289.604 187.89 289.493 187.852 289.379 187.832C287.829 187.625 286.534 187.252 285.923 189.005C285.311 190.757 284.998 192.372 284.5 194.056C284.46 194.196 284.451 194.342 284.475 194.486C284.498 194.629 284.552 194.766 284.634 194.888C284.717 195.009 284.824 195.112 284.951 195.19C285.077 195.268 285.219 195.319 285.368 195.339C285.472 195.631 285.689 195.872 285.973 196.011C286.257 196.15 286.586 196.177 286.89 196.084C286.958 196.316 287.075 196.532 287.231 196.719L287.146 196.816C287.011 196.99 286.929 197.197 286.909 197.414C286.889 197.631 286.931 197.849 287.032 198.044C287.132 198.239 287.286 198.403 287.477 198.517C287.669 198.632 287.889 198.692 288.113 198.692C287.16 199.327 287.729 201.038 288.967 200.611C291.371 199.769 294.756 199.231 296.62 197.368C297.276 196.811 297.681 196.027 297.751 195.184C297.82 194.341 297.547 193.505 296.99 192.855Z" fill="#FFB5A9"/>
<path d="M289.721 196.388C289.812 196.217 289.867 196.03 289.88 195.838C289.892 195.646 289.864 195.454 289.795 195.273C289.727 195.092 289.621 194.927 289.483 194.789C289.345 194.651 289.179 194.542 288.995 194.47L289.223 194.111C289.365 193.868 289.427 193.588 289.402 193.31C289.376 193.032 289.265 192.767 289.081 192.552C288.898 192.337 288.651 192.18 288.374 192.104C288.097 192.027 287.803 192.034 287.53 192.124C287.39 191.952 287.211 191.815 287.006 191.724C286.801 191.633 286.577 191.591 286.352 191.6C286.127 191.61 285.908 191.671 285.712 191.779C285.516 191.886 285.349 192.038 285.225 192.22C283.709 194.816 282.008 197.307 280.133 199.672C279.956 199.887 279.846 200.147 279.816 200.421C279.786 200.695 279.836 200.971 279.962 201.218L279.592 201.756C279.478 201.913 279.403 202.094 279.374 202.284C279.344 202.474 279.362 202.669 279.424 202.851C279.486 203.034 279.592 203.2 279.732 203.335C279.873 203.471 280.044 203.573 280.232 203.633C280.455 203.937 280.783 204.152 281.157 204.24C280.759 205.165 281.712 205.965 282.651 205.937C282.763 206.097 282.91 206.23 283.082 206.326C283.254 206.423 283.446 206.48 283.644 206.495C283.843 206.51 284.042 206.481 284.227 206.41C284.412 206.34 284.578 206.23 284.713 206.089C287.018 203.794 288.878 201.116 290.204 198.182C290.35 197.875 290.381 197.528 290.293 197.201C290.205 196.874 290.002 196.587 289.721 196.388Z" fill="#FFB5A9"/>
<path d="M278.369 241.721C284.23 236.477 290.759 228.942 286.634 222.953C279.806 213.072 261.441 224.595 258.426 225.216C245.182 227.976 217.827 258.336 242.522 257.246C253.748 256.754 264.52 252.804 273.276 245.971C274.628 244.895 276.463 243.432 278.369 241.721Z" fill="#3E2928"/>
<path d="M278.184 241.5C278.354 240.966 278.725 240.513 279.223 240.23C281.556 238.954 284.104 238.085 286.748 237.664C287.151 237.57 287.573 237.579 287.972 237.69C288.371 237.801 288.733 238.011 289.024 238.298C290.062 228.79 286.605 222.911 286.605 222.911L277.416 242.231C277.686 241.997 277.914 241.748 278.184 241.5Z" fill="#3E2928"/>
<path d="M282.466 195.684C282.147 195.585 281.852 195.426 281.598 195.215L267.715 207C264.701 202.367 262.949 197.068 262.622 191.599C262.11 182.56 244.243 181.028 244.243 181.028L251.896 211.775C251.896 211.775 257.003 224.195 265.652 225.216C272.409 226.044 286.378 212.396 292.053 204.613C289.735 200.776 286.989 197.119 282.466 195.684Z" fill="#00A99D"/>
<path d="M235.836 170.637C229.48 175.974 224.678 182.836 221.91 190.537C217.002 203.702 229.279 225.23 229.279 225.23L248.397 210.574" fill="#006D62"/>
<path d="M220.8 242.425C220.667 245.038 221.335 247.631 222.721 249.877C224.493 252.596 227.175 254.642 230.317 255.673C234.232 256.961 238.367 257.499 242.494 257.26C251.029 256.721 258.383 252.885 264.599 247.6C263.419 233.041 259.18 222.884 255.566 217.916L232.436 207.083C232.579 207.083 227.927 216.108 227.714 216.591C225.331 221.986 223.492 227.592 222.223 233.33C221.452 236.311 220.976 239.356 220.8 242.425Z" fill="#3E2928"/>
<path d="M255.154 192.703L230.687 191.613L224.57 222.967C231.867 227.852 254.044 225.975 258.411 225.23C257.06 215.749 256.192 202.211 255.154 192.703Z" fill="#00A99D"/>
<path d="M255.396 179.096C257.296 176.567 258.653 173.692 259.386 170.643C260.12 167.595 260.214 164.434 259.663 161.35C258.739 155.084 255.168 149.882 248.283 148.75C237.614 147.011 229.862 155.747 230.032 165.517C230.118 170.968 230.729 174.653 226.59 176.93C222.451 179.207 219.478 185.21 223.404 190.012C227.33 194.815 223.802 193.09 221.17 197.368C218.539 201.646 219.221 207.028 224.627 208.96C230.032 210.892 255.14 207.262 257.444 204.985C258.264 204.076 258.688 202.893 258.625 201.687C258.035 198.651 256.332 195.926 253.831 194.014C251.796 192.351 250.119 190.316 248.895 188.025C246.889 184.009 253.034 182.036 255.396 179.096Z" fill="#F7931E"/>
<path d="M468.287 299.598L475.641 296.065L470.236 293.084L468.287 299.598Z" fill="#C46200"/>
<path d="M430.335 207.028L439.254 202.667L438.201 208.849L432.653 210.45" fill="#C46200"/>
<path d="M479.155 292.022L496.04 237.015C496.478 235.585 496.406 234.054 495.836 232.669C495.265 231.284 494.229 230.127 492.896 229.384L445.427 202.957C444.514 202.459 443.495 202.173 442.449 202.119C441.404 202.065 440.359 202.245 439.396 202.645C438.434 203.045 437.579 203.655 436.898 204.427C436.217 205.199 435.729 206.112 435.47 207.097L420.406 263.801C420.032 265.217 420.152 266.712 420.747 268.055C421.341 269.398 422.376 270.513 423.692 271.225L469.34 295.955C470.233 296.428 471.225 296.701 472.242 296.754C473.258 296.807 474.274 296.639 475.215 296.262C476.156 295.884 476.998 295.308 477.68 294.574C478.362 293.841 478.866 292.969 479.155 292.022Z" fill="#C46200"/>
<path d="M471.217 295.872L488.102 240.865C488.54 239.436 488.468 237.904 487.898 236.519C487.327 235.134 486.292 233.977 484.959 233.234L437.49 206.807C436.576 206.31 435.558 206.023 434.512 205.969C433.466 205.915 432.422 206.095 431.459 206.495C430.496 206.895 429.642 207.505 428.961 208.277C428.28 209.049 427.791 209.962 427.532 210.947L412.468 267.651C412.095 269.067 412.215 270.563 412.809 271.906C413.403 273.248 414.439 274.363 415.754 275.075L461.402 299.805C462.296 300.278 463.287 300.551 464.304 300.604C465.321 300.657 466.337 300.489 467.278 300.112C468.218 299.735 469.061 299.158 469.742 298.425C470.424 297.691 470.928 296.819 471.217 295.872Z" fill="#F7931E"/>
<path d="M445.513 242.521L443.82 247.42L432.668 248.014L440.69 256.501L438.998 261.4L425.811 247.144L426.978 243.736L445.513 242.521Z" fill="white"/>
<path d="M461.615 249.131L474.788 263.401L473.621 266.795L455.1 268.024L456.793 263.111L467.931 262.517L459.923 254.044L461.615 249.131Z" fill="white"/>
<path d="M457.547 243.584L460.961 244.978L443.934 267.32L440.534 265.912L457.547 243.584Z" fill="white"/>
<path d="M324.031 108.703V112.415L292.053 94.3782V90.7626L324.031 108.703Z" fill="#F7931E"/>
<path d="M416.081 160.328L327.175 110.483V114.209L415.37 163.889C415.612 162.716 415.839 161.46 416.081 160.328Z" fill="#00A99D"/>
<path d="M413.947 171.23L403.179 165.186V169.133L413.279 174.832C413.544 173.636 413.767 172.436 413.947 171.23Z" fill="#8CC63F"/>
<path d="M400.064 163.406V167.353L349.594 138.897V135.102L400.064 163.406Z" fill="#F7931E"/>
<path d="M346.407 133.322V137.103L313.391 118.487V114.802L346.407 133.322Z" fill="#F15A24"/>
<path d="M310.219 113.022V116.693L292.053 106.453V102.838L310.219 113.022Z" fill="#8CC63F"/>
<path d="M411.885 182.008L326.193 133.957V137.683L411.103 185.541C411.359 184.368 411.629 183.195 411.885 182.008Z" fill="#00A99D"/>
<path d="M313.519 140.553V144.265L281.541 126.242V122.627L313.519 140.553Z" fill="#F7931E"/>
<path d="M405.583 192.193L316.705 142.347V146.073L404.9 195.753C405.114 194.58 405.341 193.379 405.583 192.193Z" fill="#00A99D"/>
<path d="M403.506 203.095L392.738 197.05V200.997L402.838 206.696C403.065 205.5 403.288 204.3 403.506 203.095Z" fill="#8CC63F"/>
<path d="M389.552 195.27V199.203L339.081 170.747V166.966L389.552 195.27Z" fill="#F7931E"/>
<path d="M335.909 165.186V168.953L302.893 150.351V146.666L335.909 165.186Z" fill="#F15A24"/>
<path d="M299.707 144.886V148.557L281.541 138.317V134.702L299.707 144.886Z" fill="#8CC63F"/>
<path d="M401.373 213.9L315.681 165.848V169.574L400.576 217.433C400.86 216.232 401.145 215.059 401.373 213.9Z" fill="#00A99D"/>
<path d="M268.212 117.176L274.315 114.25L269.834 111.766L268.212 117.176Z" fill="#066D0A"/>
<path d="M236.661 40.227L244.073 36.5976L243.205 41.7312L238.582 43.0698" fill="#066D0A"/>
<path d="M277.245 110.883L291.285 65.1498C291.648 63.9603 291.587 62.687 291.112 61.5354C290.637 60.3837 289.776 59.4207 288.668 58.8018L249.208 36.846C248.45 36.4267 247.602 36.1823 246.731 36.1315C245.86 36.0807 244.989 36.225 244.184 36.5531C243.38 36.8813 242.664 37.3846 242.092 38.024C241.52 38.6634 241.108 39.4219 240.886 40.2408L228.368 87.3816C228.058 88.56 228.157 89.805 228.651 90.923C229.145 92.041 230.006 92.9694 231.099 93.564L269.052 114.126C269.795 114.523 270.62 114.754 271.467 114.802C272.314 114.849 273.161 114.713 273.946 114.402C274.732 114.091 275.436 113.614 276.007 113.005C276.577 112.396 277.001 111.671 277.245 110.883Z" fill="#066D0A"/>
<path d="M270.645 114.085L284.685 68.3514C285.047 67.1619 284.986 65.8886 284.511 64.737C284.036 63.5853 283.176 62.6224 282.068 62.0034L242.607 40.02C241.849 39.6008 241.002 39.3563 240.131 39.3055C239.26 39.2547 238.388 39.399 237.584 39.7272C236.779 40.0553 236.064 40.5586 235.492 41.198C234.92 41.8375 234.507 42.5959 234.286 43.4148L221.768 90.5556C221.457 91.7341 221.557 92.979 222.051 94.097C222.544 95.215 223.405 96.1434 224.499 96.738L262.451 117.3C263.192 117.697 264.016 117.929 264.861 117.979C265.707 118.028 266.553 117.894 267.338 117.586C268.123 117.278 268.827 116.804 269.399 116.198C269.971 115.592 270.397 114.87 270.645 114.085Z" fill="#139E20"/>
<path d="M249.051 57.891L247.7 62.031L246.092 61.2444C245.853 61.1079 245.585 61.028 245.308 61.0112C245.031 60.9945 244.754 61.0412 244.499 61.1478C244.225 61.2836 243.986 61.4786 243.801 61.7178C243.616 61.957 243.49 62.2341 243.432 62.5278L241.612 68.1582C241.435 68.7353 241.171 69.2839 240.829 69.7866C240.6 70.1523 240.289 70.4635 239.919 70.6974C239.65 70.8534 239.364 70.9784 239.065 71.07C238.866 71.1428 238.652 71.1711 238.439 71.1528H238.198L238.397 71.3598C238.545 71.5476 238.678 71.7459 238.795 71.9532C238.982 72.2693 239.126 72.608 239.222 72.9606C239.318 73.4144 239.356 73.8778 239.336 74.3406C239.321 74.9783 239.21 75.6104 239.008 76.2174L237.173 81.8754C236.947 82.4674 236.947 83.1188 237.173 83.7108C237.393 84.2715 237.819 84.7336 238.368 85.008L239.99 85.8222L238.567 89.9622L236.149 88.734C234.584 88.015 233.351 86.7552 232.693 85.2012C232.086 83.5501 232.086 81.7463 232.693 80.0952L234.712 74.175C234.952 73.552 234.952 72.866 234.712 72.243C234.457 71.6389 233.981 71.1475 233.375 70.863L234.613 67.0128C234.869 67.1693 235.159 67.2657 235.46 67.2944C235.762 67.3232 236.066 67.2834 236.348 67.1784C236.626 67.0433 236.869 66.849 237.059 66.6101C237.249 66.3711 237.38 66.0936 237.444 65.7984L239.364 59.8644C239.537 59.0878 239.881 58.3565 240.372 57.7206C240.863 57.0847 241.489 56.5591 242.209 56.1798C242.937 55.9152 243.72 55.8198 244.493 55.9013C245.266 55.9828 246.009 56.2389 246.661 56.649L249.051 57.891Z" fill="white"/>
<path d="M270.275 68.6136C271.84 69.3326 273.073 70.5924 273.732 72.1464C274.34 73.7926 274.34 75.5924 273.732 77.2386L271.698 83.1588C271.458 83.7818 271.458 84.4678 271.698 85.0908C271.955 85.6935 272.431 86.1842 273.035 86.4708L271.797 90.321C271.543 90.1674 271.256 90.0714 270.958 90.0404C270.66 90.0093 270.358 90.0439 270.076 90.1416C269.797 90.2775 269.553 90.4718 269.361 90.7105C269.169 90.9491 269.034 91.2262 268.966 91.5216L267.06 97.4418C266.889 98.2209 266.546 98.9549 266.055 99.5933C265.564 100.232 264.936 100.759 264.215 101.14C263.487 101.405 262.705 101.5 261.931 101.419C261.158 101.337 260.416 101.081 259.763 100.671L257.344 99.4428L258.767 95.3028L260.374 96.117C260.612 96.2549 260.88 96.3378 261.156 96.3593C261.432 96.3809 261.71 96.3404 261.968 96.2412C262.23 96.1131 262.461 95.9304 262.643 95.7063C262.825 95.4821 262.954 95.2219 263.02 94.944L264.855 89.286C265.032 88.7045 265.296 88.1513 265.638 87.6438C265.866 87.2808 266.177 86.9738 266.548 86.7468C266.818 86.6075 267.099 86.4876 267.387 86.388C267.594 86.3041 267.82 86.2755 268.042 86.3052H268.255L268.056 86.112C267.912 85.9213 267.779 85.7232 267.658 85.5186C267.463 85.2011 267.319 84.8568 267.231 84.4974C267.136 84.0435 267.098 83.5802 267.117 83.1174C267.133 82.4798 267.243 81.8477 267.444 81.2406L269.265 75.6102C269.488 75.008 269.488 74.3494 269.265 73.7472C269.064 73.1556 268.636 72.6615 268.07 72.3672L266.463 71.553L267.814 67.413L270.275 68.6136Z" fill="white"/>
<path d="M263.575 74.1474L255.851 79.971L258.369 91.3974L253.66 89.01L252.01 81.903L246.875 85.5738L242.181 83.2002L250.346 77.1834L248.013 66.2676L252.892 68.7378L254.158 75.2652L258.71 71.6772L263.575 74.1474Z" fill="white"/>
</svg>
